<svg width="119" height="30" viewBox="0 0 119 30" fill="none" xmlns="http://www.w3.org/2000/svg">
    <path fill-rule="evenodd" clip-rule="evenodd" d="M21.3706 4.93146C21.3706 7.65503 19.1627 9.86292 16.4392 9.86292C13.7156 9.86292 11.5077 7.65503 11.5077 4.93146C11.5077 2.20789 13.7156 0 16.4392 0C19.1627 0 21.3706 2.20789 21.3706 4.93146ZM76.954 8.7328C76.954 7.49793 77.7561 6.72614 78.9785 6.72614C79.3605 6.72614 79.9335 6.80332 80.4301 6.89979L80.7357 5.18256C79.9908 4.97031 79.3605 4.87384 78.7493 4.87384C76.5147 4.87384 74.8912 6.34024 74.8912 8.7135V9.98696H72.2173V11.7621H74.8912V19.5572H76.954V11.7814H82.1872V19.5765H84.2691V10.0255H76.954V8.7328ZM58.1605 10.7783C57.3583 10.1416 56.327 9.77497 55.1237 9.77497C52.4689 9.77497 50.3297 12.0132 50.3297 14.7916C50.3297 17.6086 52.4689 19.8468 55.1237 19.8468C56.327 19.8468 57.3583 19.4802 58.1605 18.8242V19.596H60.2424V5.16351L58.1605 6.37909V10.7783ZM58.1605 16.5088C57.4538 17.5508 56.4798 17.9174 55.4293 17.9174C53.6912 17.9174 52.4307 16.4895 52.4307 14.7723C52.4307 13.0744 53.6912 11.6851 55.4293 11.6851C56.4798 11.6851 57.4538 12.0518 58.1605 13.0744V16.5088ZM39.214 14.8107C39.214 11.9744 41.2003 9.77478 44.0844 9.77478C46.8347 9.77478 48.8019 11.685 48.8019 14.5792C48.8019 14.9072 48.8019 15.1194 48.7637 15.4474L48.7255 15.4282V15.4474H41.334C41.5441 16.8946 42.4418 17.9944 44.2181 17.9944C45.1348 17.9944 45.8415 17.7242 46.2235 17.1068H48.5154C47.9234 18.824 46.2426 19.8467 44.199 19.8467C41.2194 19.8467 39.214 17.6663 39.214 14.8107ZM44.0844 11.5499C42.5182 11.5499 41.6205 12.6111 41.3722 13.9617H46.701C46.5482 12.3796 45.5741 11.5499 44.0844 11.5499ZM34.8966 10.0064V11.3184C35.7561 10.373 36.9402 9.81342 38.3918 9.81342V11.8008C36.8829 11.8587 35.737 12.4375 34.8966 13.5566V19.5766H32.7957V10.0064H34.8966ZM62.2273 14.8104C62.2273 11.974 64.2136 9.77441 67.0977 9.77441C69.8671 9.77441 71.8344 11.6846 71.8152 14.5788C71.8152 14.9068 71.8152 15.1191 71.777 15.4471L71.7388 15.4278V15.4471H64.3473C64.5574 16.8942 65.4551 17.994 67.2314 17.994C68.1481 17.994 68.8548 17.7239 69.2368 17.1064H71.5288C70.9367 18.8237 69.2559 19.8463 67.2123 19.8463C64.2327 19.8463 62.2273 17.666 62.2273 14.8104ZM67.1168 11.5495C65.5506 11.5495 64.6529 12.6107 64.4046 13.9614H69.7334C69.5806 12.3792 68.6065 11.5495 67.1168 11.5495ZM88.9109 10.8746C89.7322 10.1607 90.7635 9.77478 91.9668 9.77478C94.4115 9.77478 96.0923 11.492 96.1114 14.2512V19.5765H94.0104V14.3669C94.0104 12.6304 93.0746 11.685 91.5466 11.685C90.6489 11.685 89.6558 12.1866 88.9109 13.1321V19.5958H86.8099V10.0256H88.9109V10.8746ZM102.681 9.77478C99.7968 9.77478 97.8104 11.9744 97.8104 14.8107C97.8104 17.6663 99.8159 19.8467 102.795 19.8467C104.839 19.8467 106.52 18.824 107.112 17.1068H104.82C104.438 17.7242 103.731 17.9944 102.814 17.9944C101.038 17.9944 100.141 16.8946 99.9305 15.4474H107.322V15.4282L107.36 15.4474C107.398 15.1194 107.398 14.9072 107.398 14.5792C107.417 11.685 105.45 9.77478 102.681 9.77478ZM99.9878 13.9617C100.236 12.6111 101.134 11.5499 102.7 11.5499C104.19 11.5499 105.164 12.3796 105.317 13.9617H99.9878ZM113.739 9.77497C114.943 9.77497 115.974 10.1416 116.776 10.7783V6.3598L118.839 5.14423V19.596H116.776V18.8242C115.974 19.4802 114.943 19.8468 113.739 19.8468C111.085 19.8468 108.945 17.6087 108.945 14.7916C108.945 12.0132 111.085 9.77497 113.739 9.77497ZM114.045 17.9174C115.095 17.9174 116.07 17.5508 116.776 16.5089V13.0744C116.07 12.0518 115.095 11.6852 114.045 11.6852C112.307 11.6852 111.046 13.0744 111.046 14.7723C111.046 16.4896 112.307 17.9174 114.045 17.9174ZM9.86292 3.04132L0 8.79469V30L9.86292 24.2466V3.04132Z" fill="url(#paint0_linear_26_13817)"/>
    <defs>
        <linearGradient id="paint0_linear_26_13817" x1="126.143" y1="-1.87501" x2="61.6009" y2="79.0997" gradientUnits="userSpaceOnUse">
            <stop offset="0.00978764" stop-color="#FF8254"/>
            <stop offset="0.508677" stop-color="#FFBD80"/>
            <stop offset="1" stop-color="#FFE870"/>
        </linearGradient>
    </defs>
</svg>
