<svg width="119" height="30" fill="none" xmlns="http://www.w3.org/2000/svg"><path fill-rule="evenodd" clip-rule="evenodd" d="M21.37 4.931a4.931 4.931 0 1 1-9.862 0 4.931 4.931 0 0 1 9.863 0Zm55.584 3.802c0-1.235.802-2.007 2.025-2.007.382 0 .954.077 1.451.174l.306-1.717c-.745-.213-1.376-.31-1.987-.31-2.234 0-3.858 1.467-3.858 3.84v1.274h-2.674v1.775h2.674v7.795h2.063v-7.776h5.233v7.795h2.082v-9.55h-7.315V8.732Zm-18.793 2.045c-.803-.636-1.834-1.003-3.037-1.003-2.655 0-4.794 2.238-4.794 5.017 0 2.817 2.139 5.055 4.794 5.055 1.203 0 2.234-.367 3.036-1.023v.772h2.082V5.164l-2.081 1.215v4.4Zm0 5.73c-.707 1.043-1.681 1.41-2.732 1.41-1.738 0-2.998-1.428-2.998-3.146 0-1.698 1.26-3.087 2.998-3.087 1.05 0 2.025.367 2.731 1.39v3.434Zm-18.947-1.697c0-2.837 1.986-5.036 4.87-5.036 2.75 0 4.718 1.91 4.718 4.804 0 .328 0 .54-.038.868l-.039-.019v.02h-7.391c.21 1.447 1.108 2.546 2.884 2.546.917 0 1.623-.27 2.005-.887h2.292c-.592 1.717-2.272 2.74-4.316 2.74-2.98 0-4.985-2.18-4.985-5.036Zm4.87-3.261c-1.566 0-2.464 1.061-2.712 2.412h5.329c-.153-1.582-1.127-2.412-2.617-2.412Zm-9.187-1.544v1.312c.86-.945 2.043-1.505 3.495-1.505v1.988c-1.51.058-2.655.636-3.495 1.756v6.02h-2.101v-9.57h2.1Zm27.33 4.804c0-2.836 1.987-5.036 4.87-5.036 2.77 0 4.737 1.91 4.718 4.805 0 .328 0 .54-.038.868l-.038-.02v.02h-7.392c.21 1.447 1.108 2.547 2.884 2.547.917 0 1.624-.27 2.006-.888h2.292c-.592 1.718-2.273 2.74-4.317 2.74-2.98 0-4.985-2.18-4.985-5.036Zm4.89-3.26c-1.566 0-2.464 1.06-2.712 2.411h5.328c-.152-1.582-1.127-2.412-2.616-2.412Zm21.794-.675c.821-.714 1.852-1.1 3.056-1.1 2.445 0 4.125 1.717 4.144 4.476v5.325h-2.1v-5.21c0-1.736-.936-2.681-2.464-2.681-.898 0-1.891.502-2.636 1.447v6.464H86.81v-9.57h2.1v.849Zm13.77-1.1c-2.884 0-4.87 2.2-4.87 5.036 0 2.855 2.005 5.036 4.984 5.036 2.044 0 3.725-1.023 4.317-2.74h-2.292c-.382.617-1.089.887-2.006.887-1.776 0-2.673-1.1-2.883-2.547h7.391v-.019l.038.02c.038-.329.038-.54.038-.869.019-2.894-1.948-4.804-4.717-4.804Zm-2.693 4.187c.248-1.35 1.146-2.412 2.712-2.412 1.49 0 2.464.83 2.617 2.412h-5.33Zm13.751-4.187c1.204 0 2.235.367 3.037 1.003V6.36l2.063-1.216v14.452h-2.063v-.772c-.802.656-1.833 1.023-3.037 1.023-2.654 0-4.794-2.238-4.794-5.055 0-2.779 2.14-5.017 4.794-5.017Zm.306 8.142c1.05 0 2.025-.366 2.731-1.408v-3.435c-.706-1.022-1.681-1.389-2.731-1.389-1.738 0-2.999 1.39-2.999 3.087 0 1.718 1.261 3.145 2.999 3.145ZM9.863 3.041 0 8.795V30l9.863-5.753V3.04Z" fill="url('#paint0_linear_26_13817')"/><defs><linearGradient id="paint0_linear_26_13817" x1="126.143" y1="-1.875" x2="61.601" y2="79.1" gradientUnits="userSpaceOnUse"><stop offset=".01" stop-color="#FF8254"/><stop offset=".509" stop-color="#FFBD80"/><stop offset="1" stop-color="#FFE870"/></linearGradient></defs></svg>