<svg width="25" height="29" viewBox="0 0 25 29" fill="none" xmlns="http://www.w3.org/2000/svg">
<path d="M15.6623 12.8605L17.7236 9.36287L23.2796 18.0165L23.2822 19.6773L23.2641 8.24934C23.2509 7.97 23.1026 7.71446 22.866 7.56375L12.8631 1.80995C12.6293 1.69491 12.3324 1.69624 12.0988 1.81359C12.0673 1.82932 12.0376 1.84655 12.0093 1.86534L11.9744 1.88725L2.26515 7.51368L2.22752 7.53079C2.17907 7.55305 2.13005 7.58138 2.08414 7.61427C1.90001 7.74626 1.77779 7.94149 1.73825 8.16049C1.7323 8.19367 1.7279 8.22744 1.72588 8.2616L1.74114 17.5742L6.91623 9.55302C7.56784 8.48944 8.98737 8.14684 10.3052 8.16546L11.8519 8.20627L2.73858 22.8214L3.81285 23.4398L13.0352 8.22113L17.1116 8.20633L7.91298 23.8091L12.2043 26.2773C12.398 26.3561 12.6264 26.3601 12.8218 26.2895L22.9652 20.4112L21.0259 21.535L15.6623 12.8605ZM16.4487 24.1875L12.5771 18.111L14.9405 14.1004L20.0252 22.1149L16.4487 24.1875Z" fill="#2D374B"/>
<path d="M12.5771 18.1109L16.4487 24.1875L20.0253 22.1148L14.9405 14.1004L12.5771 18.1109Z" fill="#28A0F0"/>
<path d="M23.2822 19.6772L23.2796 18.0164L17.7236 9.36282L15.6623 12.8605L21.0258 21.5348L22.9651 20.4111C23.1553 20.2566 23.2704 20.0299 23.2825 19.7853L23.2822 19.6772Z" fill="#28A0F0"/>
<path d="M5.77808e-05 21.2434L2.73858 22.8214L11.8518 8.20633L10.3051 8.16552C8.98731 8.1469 7.56772 8.4895 6.91617 9.55308L1.74108 17.5743L5.77808e-05 20.2493V21.2434Z" fill="white"/>
<path d="M17.1116 8.20633L13.0352 8.22113L3.81285 23.4398L7.03637 25.2958L7.91298 23.8091L17.1116 8.20633Z" fill="white"/>
<path d="M25 8.18535C24.9659 7.33284 24.5043 6.55243 23.7813 6.09808L13.6473 0.270288C12.9321 -0.0898262 12.0387 -0.0902887 11.3222 0.270057C11.2375 0.31278 1.46722 5.97916 1.46722 5.97916C1.332 6.04403 1.20175 6.12127 1.07924 6.20897C0.433826 6.67153 0.040411 7.39037 0 8.18009L5.77808e-05 20.2493L1.74108 17.5743L1.72582 8.26166C1.72784 8.22761 1.73212 8.19408 1.73819 8.16101C1.77756 7.9419 1.89989 7.74643 2.08408 7.61433C2.13005 7.58144 12.0673 1.82938 12.0988 1.81359C12.3324 1.69624 12.6293 1.69491 12.8631 1.80995L22.866 7.56363C23.1026 7.71435 23.2509 7.96988 23.2641 8.24923V19.7853C23.252 20.0299 23.1553 20.2566 22.9651 20.4111L21.0258 21.5348L16.4487 24.1875L12.8217 26.2894C12.6264 26.3599 12.398 26.3559 12.2042 26.2772L7.91292 23.809L7.03637 25.2958L10.8928 27.5161C11.0203 27.5887 11.1339 27.653 11.2271 27.7053C11.3715 27.7862 11.4699 27.8404 11.5046 27.8573C11.7787 27.9904 12.1731 28.0679 12.5285 28.0679C12.8543 28.0679 13.1721 28.0081 13.4727 27.8903L24.0076 21.7893C24.6123 21.3208 24.968 20.6142 25 19.8489V8.18535Z" fill="#96BEDC"/>
</svg>
