<svg width="25" height="25" viewBox="0 0 25 25" fill="none" xmlns="http://www.w3.org/2000/svg">
<path d="M12.5 25C19.4036 25 25 19.4036 25 12.5C25 5.59644 19.4036 0 12.5 0C5.59644 0 0 5.59644 0 12.5C0 19.4036 5.59644 25 12.5 25Z" fill="#FF0420"/>
<path d="M9.13271 15.8546C8.38841 15.8546 7.77861 15.6794 7.30326 15.3292C6.83416 14.9727 6.59961 14.4661 6.59961 13.8093C6.59961 13.6717 6.61526 13.5028 6.64651 13.3027C6.72786 12.8524 6.84356 12.3113 6.99366 11.6796C7.41896 9.95961 8.51666 9.09961 10.2867 9.09961C10.7683 9.09961 11.1999 9.18091 11.5814 9.34351C11.963 9.49986 12.2632 9.73756 12.4821 10.0566C12.701 10.3693 12.8105 10.7446 12.8105 11.1824C12.8105 11.3137 12.7948 11.4795 12.7635 11.6796C12.6697 12.2363 12.5571 12.7773 12.4258 13.3027C12.2069 14.1596 11.8285 14.8007 11.2906 15.226C10.7527 15.645 10.0334 15.8546 9.13271 15.8546ZM9.26406 14.5036C9.61436 14.5036 9.91141 14.4004 10.1554 14.194C10.4056 13.9876 10.5838 13.6717 10.6901 13.2464C10.834 12.6585 10.9435 12.1456 11.0185 11.7078C11.0435 11.5764 11.056 11.442 11.056 11.3043C11.056 10.7352 10.7589 10.4506 10.1648 10.4506C9.81446 10.4506 9.51426 10.5538 9.26406 10.7602C9.02016 10.9666 8.84501 11.2825 8.73871 11.7078C8.62611 12.1268 8.51351 12.6397 8.40096 13.2464C8.37591 13.3715 8.36341 13.5028 8.36341 13.6404C8.36341 14.2159 8.66366 14.5036 9.26406 14.5036Z" fill="white"/>
<path d="M13.2418 15.7607C13.173 15.7607 13.1198 15.7388 13.0823 15.695C13.051 15.645 13.0417 15.5887 13.0542 15.5262L14.3489 9.42791C14.3614 9.35911 14.3958 9.30281 14.4521 9.25901C14.5084 9.21526 14.5678 9.19336 14.6303 9.19336H17.1259C17.8202 9.19336 18.3768 9.33721 18.7959 9.62491C19.2212 9.91266 19.4339 10.3286 19.4339 10.8727C19.4339 11.0291 19.4151 11.1917 19.3776 11.3606C19.2212 12.0799 18.9054 12.6115 18.43 12.9555C17.9609 13.2995 17.3167 13.4715 16.4973 13.4715H15.2308L14.7992 15.5262C14.7867 15.595 14.7523 15.6512 14.696 15.695C14.6397 15.7388 14.5803 15.7607 14.5178 15.7607H13.2418ZM16.563 12.1768C16.8257 12.1768 17.054 12.1049 17.2479 11.961C17.448 11.8172 17.5794 11.6108 17.6419 11.3418C17.6607 11.2355 17.6701 11.1417 17.6701 11.0604C17.6701 10.879 17.6169 10.7414 17.5106 10.6476C17.4042 10.5475 17.2229 10.4975 16.9664 10.4975H15.8406L15.4841 12.1768H16.563Z" fill="white"/>
</svg>
