<svg width="36" height="36" viewBox="0 0 36 36" fill="none" xmlns="http://www.w3.org/2000/svg">
<path d="M0 11.52C0 7.48762 0 5.47143 0.784753 3.93127C1.47504 2.5765 2.5765 1.47504 3.93127 0.784753C5.47143 0 7.48762 0 11.52 0H24.48C28.5124 0 30.5286 0 32.0687 0.784753C33.4235 1.47504 34.525 2.5765 35.2152 3.93127C36 5.47143 36 7.48762 36 11.52V24.48C36 28.5124 36 30.5286 35.2152 32.0687C34.525 33.4235 33.4235 34.525 32.0687 35.2152C30.5286 36 28.5124 36 24.48 36H11.52C7.48762 36 5.47143 36 3.93127 35.2152C2.5765 34.525 1.47504 33.4235 0.784753 32.0687C0 30.5286 0 28.5124 0 24.48V11.52Z" fill="none"/>
<path fill-rule="evenodd" clip-rule="evenodd" d="M22.6361 14.3005C24.5971 14.3005 26.1867 12.7108 26.1867 10.7499C26.1867 8.7889 24.5971 7.19922 22.6361 7.19922C20.6751 7.19922 19.0854 8.7889 19.0854 10.7499C19.0854 12.7108 20.6751 14.3005 22.6361 14.3005ZM17.9011 9.38897L10.7998 13.5314V28.7992L17.9011 24.6568V9.38897Z" fill="url(#paint0_linear_969_10006)"/>
<defs>
<linearGradient id="paint0_linear_969_10006" x1="27.1323" y1="5.84921" x2="6.66384" y2="10.4672" gradientUnits="userSpaceOnUse">
<stop offset="0.00978764" stop-color="#FF8254"/>
<stop offset="0.508677" stop-color="#FFBD80"/>
<stop offset="1" stop-color="#FFE870"/>
</linearGradient>
</defs>
</svg>
